<svg width="860" height="309" viewBox="0 0 860 309" fill="none" xmlns="http://www.w3.org/2000/svg">
<path fill-rule="evenodd" clip-rule="evenodd" d="M228.256 107.5V215H261.756H295.256V107.5V0H261.756H228.256V107.5ZM328.256 150.5V301H361.256H394.256V150.5V0H361.256H328.256V150.5ZM93.756 81.6C38.217 87.274 9.3 112.402 9.288 155C9.283 172.5 13.293 183.062 23.949 193.62C36.596 206.15 58.708 214.843 101.256 224.011C120.697 228.2 132.422 231.76 135.89 234.525C138.262 236.417 138.756 237.567 138.756 241.199C138.756 246.974 136.211 250.674 130.422 253.317C126.591 255.066 123.358 255.515 112.361 255.825C86.828 256.546 74.246 251.227 68.516 237.288L66.756 233.007L33.378 233.004L0 233L0.657 237.107C1.696 243.602 6.84 255.912 11.478 263C25.868 284.993 50.992 299.226 84.786 304.529C99.219 306.794 127.341 306.119 140.756 303.184C177.281 295.196 199.525 276.186 205.791 247.603C208.109 237.027 207.382 220.252 204.209 211.134C195.639 186.504 169.844 173.373 101.756 158.979C79.894 154.357 76.256 152.502 76.256 145.98C76.256 136.852 87.872 131 105.992 131C120.715 131 132.263 136.013 136.516 144.25L138.452 148H171.854C197.954 148 205.256 147.726 205.256 146.747C205.256 143.511 200.899 130.704 197.348 123.5C186.93 102.368 166.243 88.715 136.752 83.508C127.951 81.954 101.695 80.789 93.756 81.6ZM499.256 82.503C457.677 87.596 430.761 107.247 423.669 137.689C421.723 146.042 421.497 162.622 423.229 170.017C427.578 188.59 441.287 201.468 467.119 211.247C477.071 215.015 493.837 219.46 526.441 226.976C544.078 231.042 549.818 233.807 551.369 238.984C553.056 244.613 550.349 249.626 543.828 252.945C539.46 255.168 537.381 255.497 525.515 255.844C517.427 256.081 509.681 255.756 505.943 255.023C493.182 252.523 483.738 245.679 481.156 237.062L479.939 233H446.462H412.984L413.606 237.535C414.945 247.304 423.187 263.132 432.215 273.272C457.106 301.226 511.465 313.435 559.241 301.801C597.482 292.489 620.322 266.226 620.239 231.662C620.182 208.185 609.533 191.673 587.256 180.519C573.367 173.565 547.118 165.897 509.074 157.681C502.648 156.293 495.817 154.411 493.893 153.498C487.848 150.629 487.351 143.642 492.789 137.966C497.05 133.518 504.998 131.5 518.256 131.5C535.458 131.5 544.81 135.285 549.286 144.058L551.297 148H584.776C603.19 148 618.256 147.653 618.256 147.23C618.256 144.505 613.578 130.358 610.74 124.5C603.83 110.237 593.642 100.334 577.756 92.436C558.029 82.629 528.617 78.907 499.256 82.503ZM727.756 82.555C699.849 87.271 674.44 102.609 657.795 124.787C620.62 174.32 630.451 247.914 679.04 283.825C713.978 309.647 762.551 313.436 801.402 293.37C830.654 278.263 850.026 252.656 858.423 218C859.316 214.315 859.732 206.064 859.683 193C859.616 175.233 859.376 172.631 856.983 163.723C853.974 152.519 847.445 138.114 841.225 128.955C831.876 115.188 814.808 100.354 799.34 92.554C791.947 88.825 777.449 84.24 767.756 82.563C756.958 80.695 738.784 80.692 727.756 82.555ZM759.796 145.542C775.353 149.568 787.261 162.064 791.803 179.131C794.936 190.903 793.1 208.455 787.598 219.311C772.654 248.802 729.125 251.299 710.966 223.706C705.703 215.708 703.151 207.745 702.569 197.5C701.099 171.636 714.061 151.54 736.143 145.451C742.575 143.677 752.741 143.717 759.796 145.542ZM251.256 234.446C238.987 237.899 230.844 244.028 226.327 253.207C212.952 280.387 231.115 309.039 261.688 308.988C279.188 308.959 291.81 301.493 298.605 287.151C301.456 281.134 301.755 279.595 301.746 271C301.737 262.813 301.366 260.71 299.066 255.782C290.98 238.463 270.095 229.143 251.256 234.446Z" fill="#7D52F6"/>
</svg>
