<svg width="121" height="177" viewBox="0 0 121 177" fill="none" xmlns="http://www.w3.org/2000/svg">
<path d="M93 119C108.464 119 121 131.536 121 147V149C121 164.464 108.464 177 93 177H28C12.536 177 0 164.464 0 149V147C6.443e-07 131.536 12.536 119 28 119H93ZM26.4277 76.7188C30.0235 66.0282 41.6053 60.2764 52.2959 63.8721L82.8066 74.1348C93.497 77.7307 99.2481 89.3125 95.6523 100.003C92.0564 110.693 80.4755 116.444 69.7852 112.849L39.2744 102.587C28.5839 98.9911 22.832 87.4093 26.4277 76.7188ZM93 0C108.464 9.66391e-08 121 12.536 121 28V29C121 44.464 108.464 57 93 57H28C12.536 57 1.12752e-07 44.464 0 29V28C0 12.536 12.536 9.66391e-08 28 0H93Z" fill="white"/>
</svg>
